/* XPM */
static char *_96d6d90b7e24a3cbeed76aaea61e257LckrI47hkFO3V4Y7[] = {
/* columns rows colors chars-per-pixel */
"32 32 199 2 ",
"   c #120103",
".  c #230102",
"X  c #340005",
"o  c #381A0A",
"O  c #271214",
"+  c #231B1B",
"@  c #291C1B",
"#  c #341E17",
"$  c #36191A",
"%  c #381B1C",
"&  c #2A221D",
"*  c #38251A",
"=  c #1F1E25",
"-  c #201E22",
";  c #252426",
":  c #292426",
">  c #252629",
",  c #272A2C",
"<  c #282A2E",
"1  c #352624",
"2  c #392525",
"3  c #3C2E2B",
"4  c #3D312B",
"5  c #252B30",
"6  c #2B2D31",
"7  c #2E3135",
"8  c #2F3138",
"9  c #313235",
"0  c #333539",
"q  c #39373B",
"w  c #35393C",
"e  c #393B3E",
"r  c #4D0107",
"t  c #461A05",
"y  c #441E16",
"u  c #57250D",
"i  c #482D1E",
"p  c #542B14",
"a  c #58391D",
"s  c #62331A",
"d  c #442B29",
"f  c #4B3529",
"g  c #523222",
"h  c #5E3322",
"j  c #5C3A26",
"k  c #50362C",
"l  c #523929",
"z  c #5C3B2A",
"x  c #452E33",
"c  c #433733",
"v  c #4B3236",
"b  c #463937",
"n  c #543C31",
"m  c #5C3E35",
"M  c #51373D",
"N  c #533A3E",
"B  c #653C24",
"V  c #6B3B24",
"C  c #643A28",
"Z  c #5D432F",
"A  c #5D4336",
"S  c #5A453A",
"D  c #64422D",
"F  c #6D422B",
"G  c #764629",
"H  c #73432D",
"J  c #6C4533",
"K  c #664937",
"L  c #6B4B32",
"P  c #61453A",
"I  c #6F423A",
"U  c #644B3D",
"Y  c #694E3D",
"T  c #744732",
"R  c #734C34",
"E  c #7B4C34",
"W  c #724B3B",
"Q  c #6D503E",
"!  c #7C5133",
"~  c #71523B",
"^  c #7B533C",
"/  c #7E593D",
"(  c #373B41",
")  c #3B3D42",
"_  c #3D3F49",
"`  c #543D43",
"'  c #3D4145",
"]  c #3C4148",
"[  c #3E494C",
"{  c #414347",
"}  c #42444A",
"|  c #43484E",
" . c #494A4E",
".. c #5B424C",
"X. c #434651",
"o. c #464953",
"O. c #494C53",
"+. c #4B4F59",
"@. c #5F4850",
"#. c #4C5157",
"$. c #4C535B",
"%. c #525257",
"&. c #684E41",
"*. c #7F4E43",
"=. c #6D5141",
"-. c #66534A",
";. c #735341",
":. c #7B5542",
">. c #7B5B43",
",. c #725B4B",
"<. c #7A5D49",
"1. c #7E634D",
"2. c #76685F",
"3. c #535562",
"4. c #666767",
"5. c #666867",
"6. c #696867",
"7. c #676768",
"8. c #696768",
"9. c #676868",
"0. c #804528",
"q. c #814D29",
"w. c #92572A",
"e. c #844E35",
"r. c #875537",
"t. c #84553A",
"y. c #8A5C3C",
"u. c #925C3B",
"i. c #8F613E",
"p. c #97633C",
"a. c #875641",
"s. c #845C44",
"d. c #895C43",
"f. c #945C42",
"g. c #8A5C58",
"h. c #856246",
"j. c #8F6242",
"k. c #82614C",
"l. c #8C624A",
"z. c #8C6A4D",
"x. c #936345",
"c. c #9A6545",
"v. c #9B6844",
"b. c #92644B",
"n. c #99644B",
"m. c #94694E",
"M. c #996C4D",
"N. c #9C7048",
"B. c #846551",
"V. c #886754",
"C. c #8C6955",
"Z. c #926451",
"A. c #936E54",
"S. c #996E53",
"D. c #906F5C",
"F. c #9D7055",
"G. c #92725C",
"H. c #99755A",
"J. c #9B795B",
"K. c #A86E48",
"L. c #A8754E",
"P. c #B0764E",
"I. c #A26B5B",
"U. c #A57451",
"Y. c #AB7653",
"T. c #AB7952",
"R. c #A3755C",
"E. c #A4795A",
"W. c #AC7D5B",
"Q. c #8F7C6F",
"!. c #967862",
"~. c #9E7F69",
"^. c #A5815C",
"/. c #B4825A",
"(. c #9D8162",
"). c #A98666",
"_. c #A2826A",
"`. c #AC8A6C",
"'. c #B48561",
"]. c #B58967",
"[. c #BD8C63",
"{. c #B38E6D",
"}. c #B89169",
"|. c #A68A73",
" X c #B88E71",
".X c #AC9078",
"XX c #BA9676",
"oX c #C4906B",
"OX c #C99D73",
"+X c #CAA276",
"@X c #C9A17C",
"#X c #D3A57B",
"$X c #949495",
"%X c #B59780",
"&X c #BEA285",
"*X c #D6A984",
"=X c #C2A793",
"-X c #E5C2A6",
";X c #F3D2AB",
/* pixels */
"; < 9 9 0 9 9 7 7 6 6 6 9 9 ; ; , 8 9 8 6 8 9 9 7 7 7 6 6 8 6 6 ",
"> O.] ) } o.] } { 0 $ ( } } w ; 0 } _ ] } o.o.o.} } X.O.O.o.o.w ",
"6 $.0 q _ | ] ' ' ) $ } } } 0 ; q } ) ] } { | } % ) ' ] } } o.) ",
"< $.( ) o.} } } w X O } | } 8 > e ] { } } } } r X o.o.} } } } ] ",
"6 $.] ) ' } } X r r o.} } { < > ) ' { } { { { X $.$.X.] { { } ' ",
"w $.] } { { r X $ $ { } { { < > ) { { { { { { ' ] } } } { { } ) ",
"8 +.( $ X X X $ } | } } } { , ; e ' ' ) ' ' ) ) ' ) ) ) { { } ) ",
"6 X.] o.o.} } } ] 7.4.{ ] ~.G.~.`.!.G.|.) ) 8.7.) ) ' ) ) ' { w ",
"8 3.o.| ' ] } { $X5.5.k.Y <.-.V._._.1.&X.XXX4.7.$X) ) ) ) ' ' 0 ",
"6 O.] { ] ] { } { 4.4.L ^ <.k.<.D.D L =X=X%X4.4.) ) ) ) ) ' ' 0 ",
"6 O.] ) ] ] } { &.k n m m S b c b c 4 b c U Q.2.-.) ) ) ) { ' 0 ",
"6 #.] ' ] ] { U.B ].+XOX#Xy.'.].w.r.Z.&.g y.*Xc.`. X) ) ) { ' 9 ",
", o.] ] } } { b.u.T.#XP.+XOXU.@XC.;.B W.@X%X;X*XXX-X) ) ) ) { 5 ",
"> ( } X.] ] h V R h.W.}./.M.'.[.N.b.g i P  X X{.<.G.`.O.O.%. .5 ",
"; < 0 w ) ( l :.*.-.1 2 1 3 I.L x.x.T U A ,.P g.1.`.(.6 6 , > > ",
"> < 0 ) | c.f.e.E G D a.u.c.p./.c.c.p.v.Y.L.u.t.c.u./.oXw > > , ",
"8 o.$.$.$.'.0.V f.I V E H K.P.p.H n.f.G r.f.H y i g C.t. .{ ) < ",
"( 3.O.O.$.c.R.p t W n d.Z.r.E E u y.E W.q.u.E.F.H.:.s./ { { } 6 ",
"( $.+.O.X.+ & ; : + @ 1 & 3 & @ @ * @ @ @ @ + @ + + + + ' ` } 0 ",
"' +.] | ] {.s.D j m.t.m.E.J.{.&XC.L R ^ / S.z f k d.l.x.. . . 9 ",
"] +.o.X.} l.d.J j E b.W.E.^.{.H.A.s.m.j.b.W.j.i.U.[.Y.x.$ $ %.} ",
"} O.} ] } h :.x.F.W.! Y.n.y.x.S.^ F B W.T.W.v.'.W.i.x.H % {  .) ",
"] O.} ] } } d b.=.m.a.>.:.A.>.s.E ^ A U.).l.B.!.!.~.D.O { { { ) ",
"{ O.] ] ] } # K ^ p F B W F E M.E F ! H.).B.;.Z =.1.,.' { ) { ) ",
"] o.' ' ' %   o a j C p z s.t.x.q.G e.U.M.j g j ! B { { ) ' ) e ",
"} o.] ' $     W >.s.V d.R J C r. XB s R a R D z.XXh.{ { ) { ) e ",
"} o.] X X . O } o # ~ ~ L R J F r.p * l =.s.h.z.z.{ { ' ) { ' w ",
"] o.] X O $ 0 X.} U A A Y A n P Q K ;.J.J.h.Z D { ` N N ) ` N v ",
"8 +.] . ] [ | X.{ ( ) S ,.4.6.8.8.7.7.7.z.~  .} } ` ' N { M { v ",
"5 } { ] ] X.X.] ] ] ] ] $X4.e < w O.| 5.$X} o.o.O...` ` ) N N x ",
"> 6 0 ' o.} } } o.O.} X.{ 8.7.6.4.9.9.7.| |  .O.O.@.O.O.O.` v 6 ",
"; - ; < , , , > ; ; ; ; > > ; ; = < 6 < 5 6 6 0 8 x 9 7 9 d , 2 "
};
