/* XPM */
static char *a431afc6455a4fc5bae01bd5a0130cf0Qrz5S1MGc1xlgci3[] = {
/* columns rows colors chars-per-pixel */
"32 32 78 1 ",
"  c #07070A",
". c #0A070D",
"X c #0B0B0D",
"o c #120102",
"O c #1A0102",
"+ c #0C0D11",
"@ c #100E10",
"# c #0E1214",
"$ c #0D1319",
"% c #111216",
"& c #13151A",
"* c #161A1D",
"= c #191B1E",
"- c #230002",
"; c #350104",
": c #3D0004",
"> c #261214",
", c #281215",
"< c #36191B",
"1 c #391B1C",
"2 c #141620",
"3 c #161922",
"4 c #1A1D22",
"5 c #1E2124",
"6 c #1E232A",
"7 c #212225",
"8 c #24262B",
"9 c #29262A",
"0 c #26292D",
"q c #292A2E",
"w c #252731",
"e c #262B33",
"r c #2A2D32",
"t c #2A2D36",
"y c #292F36",
"u c #2C2F34",
"i c #2C2F36",
"p c #272F39",
"a c #2B2D39",
"s c #2D2F39",
"d c #273137",
"f c #2A3034",
"g c #2C3034",
"h c #2D3134",
"j c #2C3035",
"k c #2A333B",
"l c #2C303B",
"z c #2E333A",
"x c #2C343C",
"c c #2C343D",
"v c #313237",
"b c #30323C",
"n c #30333D",
"m c #32343F",
"M c #33393A",
"N c #34393E",
"B c #38393D",
"V c #4C0006",
"C c #333440",
"Z c #343640",
"A c #333840",
"S c #323B42",
"D c #353941",
"F c #363A44",
"G c #343C47",
"H c #363E46",
"J c #393C44",
"K c #393E44",
"L c #363F49",
"P c #3B3C49",
"I c #374047",
"U c #384047",
"Y c #394049",
"T c #3A414C",
"R c #3C424E",
"E c #3F444C",
"W c #3E4751",
"Q c #414350",
/* pixels */
".8AMFDmggusrZmnmllmlsxZnllnyyle&",
"+Ae8lmygr4<7yyyyyaeeymnmlaxCDCm6",
"&K47elr0r8<sssyylyeegylg1weyaamw",
"$I89mlgg5;>alsylaeysgggV;mmyylle",
"&Yewrug;VVCusyyy0rrguuu;HLxeurg0",
"4HesurV;<<yyyyyyrrrrrrrryayarrg0",
"3A6<;;;<kkyulysy0rr0r000r800rrg8",
"&xemCsaadrrryeye0rrr008808q80rr7",
"3RCleeyyrrr0V88rq08q008880008rr4",
"&AerreyyurrV;yyDv8q0008880008rr4",
"&Ae8reyyrgV;yxAEu8q8008880000rr4",
"&Ay0eeyyrrr<ATWkqq08008880000rr4",
"$mkeyyylyyerlDew000008888688wwy%",
"+8kxyylmmmZCDgnugNgu88rugMgMZPM%",
"X%4688434332&&$&4&*&&%%%%%+&&%++",
"@%48lZmyyllmM7#$&4r0r8rw70887++#",
"3CTUTHmVYxyrge%+%0em1;qrwunnvr8%",
"7QHATxl;HCgrrf=X*rl1;;rrrrrrqqu&",
"8PHAxky;lmyrer=X$re1O1rrqqrrqqu5",
"ePakkp1-<mrrrr5X+71VO10qruu,---=",
"yFxxkl-o1<rree5+%<-;110qgq>-<<Kn",
"aFayyy<:o>grer8X$1-1rrur,;;-1un8",
"eCaayyKO;-,nee8+%1<1rrr,;-->uur8",
"eCaeyl,o>;->y08+%78qrr-;-<qqqqu8",
"ymrrr1oo45;->q8+*5800-,-<urqqqq8",
"amrr<oo,lwe;-r7X48e0r<-<uurq9qq8",
"amr;;->llwye805X5rrrggggurqqqqq7",
"aCr;><4xlweeeq4X5urrggggqrqqquq7",
"3Ae-ekkxu8q8rq5+ellyggMggrqqq8r5",
"$yyyexxkeeeyrr7%6NlrrgmNNmlyqqq=",
"+&4qnaslmNllur8&=vgunMMNKKKNBu7&",
"X X%$#$+XXXX++X  %&%%&&4*4=*=&$+"
};
