/* XPM */
static char *floor1713969955[] = {
/* columns rows colors chars-per-pixel */
"32 32 50 1 ",
"  c #1F1E24",
". c #211F23",
"X c #242426",
"o c #252629",
"O c #292728",
"+ c #272A2C",
"@ c #292A2E",
"# c #252B30",
"$ c #2B2D31",
"% c #2E3134",
"& c #2F3139",
"* c #313235",
"= c #333539",
"- c #38373A",
"; c #35393C",
": c #393A3E",
"> c #363A41",
", c #3B3D42",
"< c #3D3E48",
"1 c #3D4145",
"2 c #394148",
"3 c #3C4048",
"4 c #3F4549",
"5 c #3E494D",
"6 c #414347",
"7 c #414447",
"8 c #404249",
"9 c #434448",
"0 c #45464A",
"q c #40424D",
"w c #42444C",
"e c #44474F",
"r c #43484F",
"t c #44484D",
"y c #494A4E",
"u c #424751",
"i c #424951",
"p c #474953",
"a c #474954",
"s c #474E57",
"d c #484D53",
"f c #494C54",
"g c #4B4E59",
"h c #4A535A",
"j c #4D5258",
"k c #4A535C",
"l c #4D525C",
"z c #4E545D",
"x c #505154",
"c c #52535B",
/* pixels */
"X@**=**%%$$$**XX+&*&$&**%%%$$&$$",
"od3,wp496=1>99;X=q<39pppwwudfpp;",
"$j=-<e311,1www=X-9,398t91,13qqp,",
"@h>,pw99;11qrq&o:38q90911pp99ww3",
"$l,,199111a9w8@o,1698881hki28891",
"#@l,8811118988@o,78686613w9q689,",
"o#;;,,11wr99w8+X:11,11,,1,,,670,",
"#o#@1,qq448633@@;881,,,:,,1,,17;",
"@#o#;1,8786,1,o@;,,,,,,,,,,,,1#o",
"$,#o@11q861111ooo1,,,,,,,,,,,#oO",
"$,#o#@,869111i,o,z11,,,,,,,,,&&=",
"$,3#o#,p1811sz@o,z,,1,,,,,,,,61*",
"+1,##1,p8313r,@o@,z,1,:,,;,,,,8#",
"o>1,@1ppp1dz,@ooo@@@,1689ytddcy#",
"XX=&&&&&=@@@oooooooo@@@@@@o$$+oo",
"OXX=pdp38zz,,,@o@@661,,,:,,>;oo+",
"&X=jzgp9z11,,,@o@yy11116<8pey6,@",
">=fdziw9g1111,,o@y6661668,,,660$",
">=gfiw99wp1811,oy16111666666119=",
"1g3r33911p1111,@666111,16761111*",
"3gpuww11194111,@111111,6061111x0",
"wfq39891119331@@@1111666111118y,",
"3fw399j11;;@31,@@11166611111686,",
"8f3331199@o=4,,@@::6681111116,8,",
"3p111111==o#1,:o&;,,11111766,1,:",
"qp311111=o#@16=X=,1161117666,6,:",
"qp311111;#o#,,=X;8819t997661,61;",
"3p31111;@o#=11*X=93177796oo,,oo,",
"&s2115;#o#;,,,=o3ww409y99o1o6o6o",
"#9843;@o=@;366:@;dr369ppdoo,,oo=",
"o$=1p#o#@;wi86:$*096etyddodd,o1o",
"X.X@;++oXXXXooXX @$@#$$=oooXXXXX"
};
