/* XPM */
static char *item1713969956[] = {
/* columns rows colors chars-per-pixel */
"32 32 141 2 ",
"   c #1F1E24",
".  c #211F23",
"X  c #132331",
"o  c #162939",
"O  c #1D2F3C",
"+  c #242426",
"@  c #252629",
"#  c #292728",
"$  c #272A2C",
"%  c #292A2E",
"&  c #252B30",
"*  c #2B2D31",
"=  c #2E3134",
"-  c #2F3139",
";  c #313235",
":  c #333539",
">  c #38373A",
",  c #35393C",
"<  c #393A3E",
"1  c #193142",
"2  c #1B364A",
"3  c #263A46",
"4  c #363A41",
"5  c #3B3D42",
"6  c #3D3E48",
"7  c #3D4145",
"8  c #394148",
"9  c #3C4048",
"0  c #3F4549",
"q  c #3E494D",
"w  c #32586C",
"e  c #414347",
"r  c #414447",
"t  c #404249",
"y  c #434448",
"u  c #45464A",
"i  c #40424D",
"p  c #42444C",
"a  c #44474F",
"s  c #43484F",
"d  c #44484D",
"f  c #494A4E",
"g  c #424751",
"h  c #424951",
"j  c #474953",
"k  c #474954",
"l  c #474E57",
"z  c #484D53",
"x  c #494C54",
"c  c #4B4E59",
"v  c #4A535A",
"b  c #4D5258",
"n  c #4A535C",
"m  c #4D525C",
"M  c #4E545D",
"N  c #505154",
"B  c #52535B",
"V  c #425D6A",
"C  c #415E71",
"Z  c #466A7D",
"A  c #3C6E86",
"S  c #46758B",
"D  c #4E788B",
"F  c #477991",
"G  c #4C7F92",
"H  c #657A85",
"J  c #4D8097",
"K  c #548296",
"L  c #5F8696",
"P  c #51849A",
"I  c #5A8799",
"U  c #568A9E",
"Y  c #5D8C9E",
"T  c #63889A",
"R  c #5B8EA3",
"E  c #5E92A6",
"W  c #638FA0",
"Q  c #6492A3",
"!  c #6C96A6",
"~  c #6295A9",
"^  c #669AAE",
"/  c #6C9BAC",
"(  c #7397A7",
")  c #759AA6",
"_  c #7F9AA6",
"`  c #729CAA",
"'  c #799CAA",
"]  c #6B9EB2",
"[  c #73A0AF",
"{  c #7CA2AE",
"}  c #6DA2B4",
"|  c #73A4B5",
" . c #78A2B1",
".. c #7FA9B7",
"X. c #73A7BA",
"o. c #74A9BA",
"O. c #7BAEBE",
"+. c #7BAEC1",
"@. c #7FB2C4",
"#. c #839DA9",
"$. c #80A6B0",
"%. c #8EA6B1",
"&. c #83ABB6",
"*. c #88ACB5",
"=. c #86ADBA",
"-. c #8AAFBB",
";. c #93AAB6",
":. c #90B6BE",
">. c #99B2BC",
",. c #92B9BF",
"<. c #A6B4BA",
"1. c #ADBABD",
"2. c #82B5C5",
"3. c #8EB2C1",
"4. c #8BB5C2",
"5. c #8FB6C1",
"6. c #89B7C5",
"7. c #8AB9C7",
"8. c #8DB9C7",
"9. c #91BAC4",
"0. c #95BEC7",
"q. c #9CBCC4",
"w. c #93BAC9",
"e. c #94BEC8",
"r. c #9CBEC8",
"t. c #A1BFC7",
"y. c #A4BFC7",
"u. c #B2BFC3",
"i. c #9FC0C7",
"p. c #9CC1C9",
"a. c #A3C2C7",
"s. c #AEC5C6",
"d. c #A3C3C9",
"f. c #A6C1C9",
"g. c #A8C0C9",
"h. c #AEC6CB",
"j. c #B3C2C6",
"k. c #B2C8C7",
"l. c #B5C2C8",
"z. c #B8C7CA",
"x. c #CBCBCC",
/* pixels */
"+ % ; ; : ; ; = = * * * ; ; + + $ - ; - * - ; ; = = = * * - * * ",
"@ z 9 5 p j 0 y e : 7 4 y y , + : i 6 9 y j j j p p g z x j j , ",
"* b : > 6 a 9 7 7 5 7 p p p : + > y 5 9 y t d y 7 5 7 9 i i j 5 ",
"% v 4 5 j p y y , 7 7 i s i - @ < 9 t i y u y 7 7 j j y y p p 9 ",
"* m 5 5 7 y y 7 7 7 k y p t % @ 5 7 e y t t t 7 v n h 8 t t y 7 ",
"& % m 5 t t 7 7 7 7 t y >.T ! [ &.4.e.O.6.H V Z W 5.y i e t y 5 ",
"@ & , , 5 5 7 7 p s y y f.f.h.! G | o.O.D X X 3 S Q ` 5 e r u 5 ",
"& @ & % 7 5 i i 0 0 t e f.r.X.P X.8.4.2.O.1 o 2 ( 2.X.W 5 7 r , ",
"% & @ & , 7 5 t r t e 5 ! J ~ 2.h.2.2.O.2.Q Q 9.2.2.^ R 5 7 & @ ",
"* 5 & @ % 7 7 i t e 7 7 ) F ^ 7.( ( x.%.#.2.8.2.2.2.2.P 5 & @ # ",
"* 5 & @ & % 5 t e y 7 *.~ @.( <.x.g.3.u.o.E w.7.2.2.O.F 5 - - : ",
"* 5 9 & @ & 5 j 7 t d.Y ~ T l.g.] o.2.7.+.2.7.2.6.6.Y P 5 e 7 ; ",
"$ 7 5 & & 7 5 j t t.P P ;.z.>.} o.2.7.7.O.2.2.2.C O w ` 5 5 t & ",
"@ 4 7 5 % 7 j j j ! R _ x.} } 2.2.2.7.2.O.X.o.Z o X 1 -.z B f & ",
"+ + : - - - - - i.P L u.^ +.p.7.2.2.2.o.} ^ ^ K 1 Z ) * * $ @ @ ",
"# + + : j z j 9 { F %.&.o.2.2.7.^ ^ ^ ^ ^ P P ~ / 0.5 4 , @ @ $ ",
"- + : b M c j 1.P R ^ ^ +.O.o.o.^ o.^ P S  .0.e 6 t j a f e 5 % ",
"4 : x z M h p { ^ ^ } ^ ^ ^ ^ } } R U -.K i.e e t 5 5 5 e e u * ",
"4 : c x h p y ! ] } } X.^ R W q. .&.&.f.I a.e e e e e e 7 7 y : ",
"7 c 9 s 9 9 y P ^ ^ } ~ Y f.5 % i.L y.f.( a.5 7 e r e 7 7 7 7 ; ",
"9 c j g p p f.' ^ } P &.7 7 5 % 7 t.f.j.I a.5 e u e 7 7 7 7 N u ",
"p x i 9 y t k.P ^ P *.9 9 7 % % % 7 q.T a.e e e 7 7 7 7 7 t f 5 ",
"9 x p 9 y y s.P ^ P ! *.9 7 5 % % 7 7 r.e e e 7 7 7 7 7 e t e 5 ",
"t x 9 9 9 f.A 4.p...! K q.5 5 % % < < e e t 7 7 7 7 7 7 e 5 t 5 ",
"9 j 7 7 7 $.A 7 : : @ *.! 5 < @ - , 5 5 7 7 7 7 7 r e e 5 7 5 < ",
"i j 9 7 &.Q 7 7 : @ & % T q.: + : 5 7 7 e 7 7 7 r e e e 5 e 5 < ",
"i j 9 7 ,.7 7 7 , & @ & 5 =.:.+ , t t 7 y d y y r e e 7 5 e 7 , ",
"9 j 9 7 7 7 7 , % @ & : 7 7 ; + : y 9 7 r r r y e @ @ 5 5 @ @ 5 ",
"- l 8 7 7 q , & @ & , 5 5 5 : @ 9 p p 0 u y f y y @ 7 @ e @ e @ ",
"& y t 0 9 , % @ : % , 9 e e < % , z s 9 e y j j z @ @ 5 5 @ @ : ",
"@ * : 7 j & @ & % , p h t e < * ; u y e a d f z z @ z z 5 @ 7 @ ",
"+ . + % , $ $ @ + + + + @ @ + +   % * % & * * : @ @ @ + + + + + "
};
