/* XPM */
static char *o_door1713969956[] = {
/* columns rows colors chars-per-pixel */
"32 32 150 2 ",
"   c #252527",
".  c #282B2E",
"X  c #303334",
"o  c #333538",
"O  c #2F3035",
"+  c #2A2D30",
"@  c #272B2D",
"#  c #2E3038",
"$  c #242729",
"%  c #494C53",
"&  c #3C4148",
"*  c #3A3D43",
"=  c #42444B",
"-  c #464953",
";  c #3F484C",
":  c #404347",
">  c #37191B",
",  c #373A41",
"<  c #949595",
"1  c #767676",
"2  c #767876",
"3  c #434651",
"4  c #34393C",
"5  c #4C535B",
"6  c #39363B",
"7  c #3D3F48",
"8  c #43484D",
"9  c #3D4145",
"0  c #63432F",
"q  c #5F422E",
"w  c #846347",
"e  c #9B795D",
"r  c #666966",
"t  c #694E3E",
"y  c #5C4436",
"u  c #614A3D",
"i  c #381B1D",
"p  c #906E5A",
"a  c #9E7F69",
"s  c #967962",
"d  c #816451",
"f  c #8D6249",
"g  c #AC8363",
"h  c #A57451",
"j  c #5D4338",
"k  c #7A5239",
"l  c #7B4C35",
"z  c #845B44",
"x  c #7E5A41",
"c  c #926E54",
"v  c #7A5743",
"b  c #875740",
"n  c #95684D",
"m  c #6C5041",
"M  c #92654D",
"N  c #452E25",
"B  c #976043",
"V  c #AC7653",
"C  c #BB8860",
"Z  c #8F613F",
"A  c #8F6241",
"S  c #AB7E5C",
"D  c #996B4D",
"F  c #9A765C",
"G  c #B08F68",
"H  c #A4815D",
"J  c #A57856",
"K  c #5F3927",
"L  c #6E4333",
"P  c #8B5B43",
"I  c #7C593B",
"U  c #9C7056",
"Y  c #A2755B",
"T  c #925C3B",
"R  c #804F2A",
"E  c #8B5A3C",
"W  c #56250D",
"Q  c #875339",
"!  c #8E6450",
"~  c #523C32",
"^  c #704C3E",
"/  c #471A04",
"(  c #582C12",
")  c #9A6445",
"_  c #4B4F58",
"`  c #350104",
"'  c #C4916A",
"]  c #B7815B",
"[  c #AB754F",
"{  c #9F6942",
"}  c #95633C",
"|  c #734027",
" . c #844E37",
".. c #975F41",
"X. c #E4C2A6",
"o. c #BD9879",
"O. c #D0A688",
"+. c #F2D3AA",
"@. c #B89B81",
"#. c #C5A27D",
"$. c #613C22",
"%. c #775241",
"&. c #8C6856",
"*. c #CEA07C",
"=. c #CC9B72",
"-. c #CDA076",
";. c #AF7A4C",
":. c #D5A479",
">. c #AC7950",
",. c #525562",
"<. c #676669",
"1. c #676767",
"2. c #B69877",
"3. c #AC9079",
"4. c #BCA389",
"5. c #7F634B",
"6. c #A2836A",
"7. c #806959",
"8. c #675347",
"9. c #745B46",
"0. c #826148",
"q. c #686669",
"w. c #1A1B1B",
"e. c #A68B72",
"r. c #93745B",
"t. c #A8886D",
"y. c #9D7D65",
"u. c black",
"i. c #4C5056",
"p. c #252A31",
"a. c #52525B",
"s. c #494A4F",
"d. c #292728",
"f. c #553C43",
"g. c #220102",
"h. c #505055",
"j. c #120002",
"k. c #393B3F",
"l. c #271314",
"z. c #523A3E",
"x. c #4A3336",
"c. c #50363D",
"v. c #5A424C",
"b. c #452F33",
"n. c #5E4850",
"m. c #201F22",
"M. c #1F1F24",
"N. c #43292D",
"B. c #392226",
"V. c white",
/* pixels */
"  . X X o X X O O + + + X X     @ # X # + # X X O O O + + # + + ",
"$ % & * = - ; = : o > , < 1 2 2 2 1 2 1 < - - - = = 3 % % - - 4 ",
"+ 5 o 6 7 8 & 9 9 0 q w e r r r r r r r t y y u i * 9 & = = - * ",
". 5 , * - = p a s s d f g h j k l z x c v x b n m M N = = = = & ",
"+ 5 & * 9 B V C h Z A S M A D z c F G H J S M l K L P f : : = 9 ",
"4 5 & = : I z v F U Y T R S l E W l l Q ! b ~ ^ / ( Y ) : : = * ",
"# _ , > ` ' ] T ) Q T [ V { } ) ) ] } ) T b 0 | l  ...B : : 8 * ",
"+ 3 & - - = = X.o.O.+.@.#.S $.%.&.*.h =.-.;.:.>.T M 9 * * 9 : 4 ",
"# ,.- 8 9 & = : < <.1.2.3.4.5.6.6.7.8.9.t 0.r r < * * * * 9 9 o ",
"+ % & : & & : = : <.q.w.w.e.r.s t.a r.y.u.u.1.<.* * * * * 9 9 o ",
"+ % & * & & = : w.w.w.w.w.w.w.u.u.u.u.u.u.u.u.u.u.* * * * : 9 o ",
"+ i.& 9 & & : w.w.w.w.w.w.u.u.u.u.u.u.u.u.u.u.u.u.u.* * * : 9 X ",
"@ - & & = = : w.w.w.w.w.u.u.u.u.u.u.u.u.u.u.u.u.u.u.* * * * : p.",
"$ , = 3 & & w.w.w.w.w.u.u.u.u.u.u.u.u.u.u.u.u.u.u.u.u.% % a.s.p.",
"  . o 4 * , w.w.w.w.w.u.u.u.u.u.u.u.u.u.u.u.u.u.u.u.u.+ + @ $ $ ",
"d.. o * 8 w.w.w.w.w.u.u.u.u.u.u.u.u.u.u.u.u.u.u.u.u.u.u.4 $ $ @ ",
"# - 5 5 5 w.w.w.w.w.u.u.u.u.u.u.u.u.u.u.u.u.u.u.u.u.u.u.s.: * . ",
", ,.% % 5 w.w.w.w.w.u.u.u.u.u.u.u.u.u.u.u.u.u.u.u.u.u.u.: : 8 + ",
", 5 _ % 3 w.w.w.w.w.u.u.u.u.u.u.u.u.u.u.u.u.u.u.u.u.u.u.9 f.= o ",
"9 _ & 8 & w.w.w.w.w.u.u.u.u.u.u.u.u.u.u.u.u.u.u.u.u.u.u.g.g.g.X ",
"& _ - 3 = w.w.w.w.w.u.u.u.u.u.u.u.u.u.u.u.u.u.u.u.u.u.u.> > h.8 ",
"= % = & = w.w.w.w.w.u.u.u.u.u.u.u.u.u.u.u.u.u.u.u.u.u.u.i : s.* ",
"& % = & = = w.w.w.w.w.u.u.u.u.u.u.u.u.u.u.u.u.u.u.u.u.u.: : : * ",
": % & & & = w.w.w.w.w.w.u.u.u.u.u.u.u.u.u.u.u.u.u.u.u.9 : * : * ",
"& - 9 9 9 i j.w.w.w.w.w.w.u.u.u.u.u.u.u.u.u.u.u.u.u.: : * 9 * k.",
"= - & 9 > j.j.w.w.w.w.w.w.w.w.u.u.u.u.u.u.u.u.u.u.u.: : * : * k.",
"= - & ` ` g.l.= w.w.w.w.w.w.w.w.w.w.u.u.u.u.u.u.u.: : 9 * : 9 4 ",
"& - & ` l.> o 3 = w.w.w.w.w.w.w.w.w.w.w.w.w.w.w.: f.z.z.* f.z.x.",
"# _ & g.& ; 8 3 : , * w.w.w.w.w.w.w.w.w.w.w.s.= = f.9 z.: c.: x.",
"p.= : ; & 3 3 & & & & & : r k.. 4 % 8 r : = - - % v.f.f.* z.z.b.",
"$ + o 9 - = = = - % = 3 : r r r r r r r 8 8 s.% % n.% % % f.x.+ ",
"  m.  . @ @ @ $         $ $     M.. + . p.+ + o # b.X O X N.@ B."
};
