/* XPM */
static char *_8a9ddaf2cd14688ef5702063698c9c5v09eTDCCn3CfJ7xW[] = {
/* columns rows colors chars-per-pixel */
"32 32 73 1 ",
"  c #120002",
". c #1A0103",
"X c #230103",
"o c #340005",
"O c #3D0104",
"+ c #261214",
"@ c #291214",
"# c #36191A",
"$ c #391A1D",
"% c #3B3B3D",
"& c #4D0107",
"* c #4F373B",
"= c #3D3E41",
"- c #413F40",
"; c #563D42",
": c #3E4144",
"> c #414245",
", c #44454A",
"< c #46494C",
"1 c #4A4B4E",
"2 c #5A4246",
"3 c #5E464B",
"4 c #464A50",
"5 c #4B4D52",
"6 c #514E55",
"7 c #4E5155",
"8 c #4F535A",
"9 c #515356",
"0 c #545558",
"q c #555459",
"w c #54565A",
"e c #51535D",
"r c #51555C",
"t c #55555D",
"y c #55565C",
"u c #55585B",
"i c #54595B",
"p c #52595D",
"a c #57595D",
"s c #58595E",
"d c #595A5E",
"f c #644A4E",
"g c #664D52",
"h c #684D52",
"j c #665152",
"k c #6B535B",
"l c #545761",
"z c #575960",
"x c #555C60",
"c c #565D64",
"v c #595B62",
"b c #595D63",
"n c #5A5D63",
"m c #585B64",
"M c #5A5D65",
"N c #5C5F67",
"B c #585E68",
"V c #5D5F69",
"C c #715960",
"Z c #5D6166",
"A c #5D6067",
"S c #5A6169",
"D c #5C6269",
"F c #5C626A",
"G c #5E656B",
"H c #5F666C",
"J c #606163",
"K c #61656A",
"L c #62646B",
"P c #61666D",
"I c #626771",
"U c #626871",
"Y c #636971",
/* pixels */
"%><<1<<,,,,>1,%%:,,,,,<,,,,,,,>,",
"=Ar9zbaau5#5aa5%1zrraMMbzzmNAMM5",
">K45evyrr7#zzz1%1a9yaybs$8ryzzM8",
":H79Mzaa1o+lbz<=9razass&oMMaazzr",
",P89waao&&Mazy>=9rwaaaaoHHcraaar",
"5G8zay&o##aaay>=9uauywwrrzazuya9",
"<S7#ooo#zxaaza:%7rwrwr99r9rrwus9",
",c8MMzllppaurr>=5yyw997799w99wu5",
"<UBvryayuywr&7=%199r999979999rw1",
",Sryryzyawr&oy:%<999999979999rw1",
">Dr9ryayua&opx,%<9w9999979999wr<",
">Gprrrayray#SU>=>r99999979999ww<",
":bl8aaazyrrrbA>:19999979779999y>",
"=7zmrrzMNMNNAa1,1bsa99wsabbAVKb>",
"%><5854<4<<<,,:,1,<,,>>>>>=,,>==",
"->19bNMrazvMb7::>1ury5w959775=%-",
"<MIKUDM&Pmpuar>=>9rM$owweyNvbw9>",
"5UDAIMzoKNapru<%,rv$oowwywrwwws,",
"7PDAczaozMaapa1%:wr$.$wwwwwwrwa1",
"rKlxzl$X#Nrwru1%=7$&.$9wwuu@XXX<",
"rDvmzzX $#uupr5=>#Xo$$9wsw+X#$Kv",
"zDzyaa#O +arrr7%:$X$wwww@ooX$ab9",
"lVzlaaK.oX@mrr9=>$#$www@oXX+usw9",
"rNlyrz@ +oX+a99=>59wwyXoX#rwwwa9",
"lMrww$  15oX+99=<599rX@X#uww9r99",
"zMyw#  @z9eoXw1%19rru#X#uwww9w97",
"zMyooX+zv9rr891%5yywusasuwww9ww5",
"lMro+#<mv9e9rr1%5ayruuuawgggwhg3",
"4ArX8xxbw699ww1=8zzpssbaujwgwfw3",
":aaprmczrrraww7>5AbpusNNAkkg9gg2",
"=,1wbzzzMAzbsw9,<ssuvbbAKCKAJg3>",
"%%%>:::=%%%%==%%%>>>>,,<<2<,<;:*"
};
