/* XPM */
static char *d3fe641735314e6ea7736867685de46ewiBITI6lwA8yxnxC[] = {
/* columns rows colors chars-per-pixel */
"32 32 83 1 ",
"  c #120003",
". c #1A0003",
"X c #230103",
"o c #340005",
"O c #3D0004",
"+ c #271214",
"@ c #281315",
"# c #36191B",
"$ c #391B1C",
"% c #1F1E24",
"& c #211F23",
"* c #242426",
"= c #252629",
"- c #292728",
"; c #272A2C",
": c #292A2E",
"> c #392227",
", c #252B30",
"< c #2B2D31",
"1 c #2C2F38",
"2 c #2E3134",
"3 c #2F3139",
"4 c #313235",
"5 c #333539",
"6 c #38373A",
"7 c #35393C",
"8 c #393A3E",
"9 c #4D0007",
"0 c #42282C",
"q c #452E33",
"w c #4B3237",
"e c #51373D",
"r c #533A3E",
"t c #363A41",
"y c #3B3D42",
"u c #3D3E48",
"i c #543C43",
"p c #3D4145",
"a c #394148",
"s c #3B414A",
"d c #3C4048",
"f c #3F4248",
"g c #3E424B",
"h c #3F424B",
"j c #3D4449",
"k c #3F4549",
"l c #3E494D",
"z c #414246",
"x c #414347",
"c c #414447",
"v c #404249",
"b c #43434A",
"n c #434448",
"m c #45464A",
"M c #40424D",
"N c #42444C",
"B c #44474F",
"V c #43484F",
"C c #44484D",
"Z c #494A4E",
"A c #5B434D",
"S c #424751",
"D c #424951",
"F c #464851",
"G c #474953",
"H c #474B53",
"J c #474954",
"K c #474E57",
"L c #494C53",
"P c #484D53",
"I c #494C54",
"U c #4B4E59",
"Y c #5E4850",
"T c #4C5157",
"R c #4A535A",
"E c #4D5258",
"W c #4A535C",
"Q c #4D525C",
"! c #4E545D",
"~ c #505154",
"^ c #52535B",
"/ c #505560",
"( c #545562",
/* pixels */
"*:4454422<<<44**;343<344222<<3<<",
"=PdyNGknx5#tnn7*5MudnGGGNNSPIGG7",
"<E56uBdppy#NNN5*6nydnvCn$ypdMMGy",
":RtyGNnn7o+MVM3=8dvMnmn9oGGnnNNd",
"<Qdypnno99JnNv:=ypxnvvvoRWDavvnp",
"7RdNvv9o##vnvv:=ycvxvxxpdNnMxvny",
"3Kt#ooo#NVnnNv;*8ppyppyypyyyxcmy",
"<DaGJNMMkkvxdd:=7vvpyyy8yypyypc7",
"3/JBpdMvcvxy9y=*7yyyyyyyyyyyypp5",
"<IavddvMvxp9od;*4yyyyyyyyyyyypp5",
"<IayddNvxn9okD2*4ypyyyyyyyyyyxp5",
"<TdpddvMpvv#K!:=:pyyyyyyyyyyyxp4",
";GdannvNvdddVI<;5yyyyy8yy7yyyyv,",
"=tNSddNGGGPGIn5<5GmvyyxvnZCPP^Z,",
"*:57yt535331<<;<5<3<<:::::=<<;==",
"-:5yCPGdvNBGC8;;<5xputyy8yyt7==;",
"3JQE!UG9!Gdxnp:=:yyG$opxuvGBZxy:",
"t(IP!DNoUGnkpc3*2pN$ooxxvyyyxxm<",
"tQUIDNnoNGnvkk4*;pp$.$xxxxxxpin5",
"pUdVdd$X#Gpppx5*=8$9.$ypxcx@XXX4",
"dUGSNNX $#kkkp5=:#Xo$$yxmx+X##~m",
"NIMdnv#O +nddd8*;$X$xxxx@ooX$vZy",
"dINdnnE.oX@Gdpy=:$#$xxx@oXX+xvxy",
"vIdddN@ +oX+kyy=:88xxvXoX#ppxyvy",
"dGppp$  57oX+y8=37yypX@X#cxxypy8",
"MGdp#  @NyuoXx5*5yppx#X#cxxxyxy8",
"MGdooX+NNyddyy5*7vvpnCnncxxpyxp7",
"dGdo+#5SNyuypp4*5ndpcccnxirryirw",
"3KaXdlVDxtyyyy5=dNNkmnZnniprxexw",
",nvkdSDdddadxx8:7PVdxnGGPAiiyrrq",
"=<5pGNMNGPNDvx8<4mnxBCZPPYPPPiw<",
"*&*:;;;=****==**%:<:,<<53q4240;>"
};
