/* XPM */
static char *player1713970650[] = {
/* columns rows colors chars-per-pixel */
"32 32 139 2 ",
"   c #010001",
".  c #0A0106",
"X  c #0C010D",
"o  c #090908",
"O  c #1F1E24",
"+  c #29062E",
"@  c #211F23",
"#  c #39073A",
"$  c #242426",
"%  c #252629",
"&  c #292728",
"*  c #272A2C",
"=  c #292A2E",
"-  c #252B30",
";  c #2B2D31",
":  c #2E3134",
">  c #2F3139",
",  c #313235",
"<  c #333539",
"1  c #38373A",
"2  c #35393C",
"3  c #393A3E",
"4  c #363A41",
"5  c #3B3D42",
"6  c #3D3E48",
"7  c #460547",
"8  c #4B0246",
"9  c #450947",
"0  c #4A024B",
"q  c #44094A",
"w  c #4F0251",
"e  c #5B0055",
"r  c #55005C",
"t  c #5F0B5C",
"y  c #65014B",
"u  c #6F045C",
"i  c #7F0057",
"p  c #64006A",
"a  c #6D096A",
"s  c #6B106D",
"d  c #670770",
"f  c #720273",
"g  c #790E7A",
"h  c #723567",
"j  c #642B71",
"k  c #3D4145",
"l  c #394148",
"z  c #3C4048",
"x  c #3F4549",
"c  c #3E494D",
"v  c #414347",
"b  c #414447",
"n  c #404249",
"m  c #434448",
"M  c #45464A",
"N  c #40424D",
"B  c #42444C",
"V  c #44474F",
"C  c #43484F",
"Z  c #44484D",
"A  c #494A4E",
"S  c #424751",
"D  c #424951",
"F  c #474953",
"G  c #474954",
"H  c #474E57",
"J  c #484D53",
"K  c #494C54",
"L  c #4B4E59",
"P  c #4A535A",
"I  c #4D5258",
"U  c #4A535C",
"Y  c #4D525C",
"T  c #4E545D",
"R  c #505154",
"E  c #52535B",
"W  c #747575",
"Q  c #88017C",
"!  c #900073",
"~  c #94067B",
"^  c #A3106A",
"/  c #AE027D",
"(  c #BC1474",
")  c #802A7E",
"_  c #C50767",
"`  c #C4046D",
"'  c #CB026E",
"]  c #C20C6F",
"[  c #CE086F",
"{  c #D9056C",
"}  c #CB0771",
"|  c #C50C73",
" . c #CD0B76",
".. c #C40579",
"X. c #C8077E",
"o. c #D50275",
"O. c #DA0174",
"+. c #D5037A",
"@. c #DC017B",
"#. c #CF1075",
"$. c #E10176",
"%. c #830383",
"&. c #890187",
"*. c #85028B",
"=. c #8B008B",
"-. c #840491",
";. c #910095",
":. c #B30583",
">. c #BA0589",
",. c #812B83",
"<. c #82338E",
"1. c #C20780",
"2. c #C42581",
"3. c #EB3D9B",
"4. c #854186",
"5. c #B57FB9",
"6. c #ED419D",
"7. c #E740A8",
"8. c #FE5EB7",
"9. c #FE58B8",
"0. c #F663BD",
"q. c #FD60B9",
"w. c #FE6FBC",
"e. c #FF73BF",
"r. c #FB74BD",
"t. c #FE74BF",
"y. c #FE6BC2",
"u. c #FE6FC9",
"i. c #FE75C2",
"p. c #FF79CB",
"a. c #FF6FD0",
"s. c #FF71D3",
"d. c #B483BA",
"f. c #C289CD",
"g. c #C596C0",
"h. c #F6F7F4",
"j. c #FDF8F6",
"k. c #FBFAFB",
"l. c #FEFFFF",
/* pixels */
"$ = , , < , , : : ; ; ; , , $ $ * > , > ; > , , : : : ; ; > ; ; ",
"% J z 5 B F x m v < k 4 m m 2 $ < N 6 z m F F F B B S J K F F 2 ",
"; I < 1 6 V z k k 5 k B B B < $ 1 m 5 z m n Z m k 5 k z N N F 5 ",
"= P 4 5 F B m m 2 k k N C N > % 3 z n N m M m k k F F m m B B z ",
"; Y 5 5 k m m k k k G m B n = % 5 k v m n n n k P U D l n n m k ",
"- = Y 5 n n k k k k n m n n ) ,.,.h n v n v v k z B m N v n m 5 ",
"% - 2 2 5 5 k k B C m m 5.:.3.3.3.7.:.d.k k 5 5 k 5 5 5 v b M 5 ",
"- % - = k 5 N N x x <.1.0.i.t.e.e.e.t.q...g.5 3 5 5 k 5 5 k b 2 ",
"= - % - 2 k 5 n b a _ e.e.e.e.e.e.e.e.e.2.+.j 5 5 5 5 5 5 k - % ",
"; 5 - % = k k N n X.' ` t.e.e.e.e.e.e. .i.. X 5 5 5 5 5 5 - % & ",
"; 5 - % - = 5 n s o.] | [ | e.i.i.' u.( h.      5 5 5 5 5 > > < ",
"; 5 z - % - 5 F *.o.o.} ' . . p.O.o.O.u l.W     5 5 5 5 5 v k , ",
"* k 5 - - k 5 F *.o.o.o.    k.j.! a.p.g         5 2 5 5 5 5 n - ",
"% 4 k 5 = k F F *.@.+.%.    o l.X +.w.s.        m A Z J J E A - ",
"$ $ < > > > > > 0 o.+.0         X i.t.e.r.%.*.f = + % ; ; * % % ",
"& $ $ < F q 9 9 n *.+.o.      8 r.+.o.o.O.6.8.p =.*.5 4 2 % % * ",
"> $ < I T $.0 *.*.*.0 =.&.8 8 O.i.o.}  .*.6.#.i.6 n F V A v 5 = ",
"4 < K J T D B m 8 8 8 w =.r.o.O.=.y i.y.>.d ~ o.9.5 5 t v v M ; ",
"4 < L K D B m m B F k i.o.o.*.=.# y i.e.^ k v f =.o.o.o.k k m < ",
"k L z C z z m ;.k -.r.O.&.8 7 = v r $.i.k k 5 k v 0 0 k k k k , ",
"z L F S B B k w @.o.=.0 7 k 5 = k k Q | k k 5 v M v k k k k R M ",
"B K N z m n m k k k m z z k = = = k w { 4.v v v k k k k k n A 5 ",
"z K B z m m I k k 2 2 = z k 5 = = k k e { f.v k k k k k v n v 5 ",
"n K z z z k k m m = % < x 5 5 = = 3 3 v i / k k k k k k v 5 n 5 ",
"z F k k k k k k < < % - k 5 3 % > 2 5 5 O.k k k k b v v 5 k 5 3 ",
"N F z k k k k k < % - = k v < $ < 5 k k v k k k b v v v 5 v 5 3 ",
"N F z k k k k k 2 - % - 5 5 < $ 2 n n k m Z m m b v v k 5 v k 2 ",
"z F z k k k k 2 = % - < k k , $ < m z k b b b m v % % 5 5 % % 5 ",
"> H l k k c 2 - % - 2 5 5 5 < % z B B x M m A m m % k % v % v % ",
"- m n x z 2 = % < = 2 z v v 3 = 2 J C z v m F F J % % 5 5 % % < ",
"% ; < k F - % - = 2 B D n v 3 ; , M m v V Z A J J % J J 5 % k % ",
"$ @ $ = 2 * * % $ $ $ $ % % $ $ O = ; = - ; ; < % % % $ $ $ $ $ "
};
