/* XPM */
static char *_cd32c81f1db4dfb920d343c5e16fad0QnUKlZJx1TOq5tNl[] = {
/* columns rows colors chars-per-pixel */
"32 32 243 2 ",
"   c #010001",
".  c #0A0106",
"X  c #0C010D",
"o  c #090908",
"O  c #120103",
"+  c #1A0103",
"@  c #230102",
"#  c #340005",
"$  c #381A0A",
"%  c #271214",
"&  c #231B1B",
"*  c #291C1B",
"=  c #341E17",
"-  c #36191A",
";  c #381B1C",
":  c #2A221D",
">  c #38251A",
",  c #1F1E25",
"<  c #29062E",
"1  c #201E22",
"2  c #39073A",
"3  c #252426",
"4  c #292426",
"5  c #252629",
"6  c #272A2C",
"7  c #282A2E",
"8  c #392525",
"9  c #252B30",
"0  c #2B2D31",
"q  c #2E3135",
"w  c #2F3138",
"e  c #313235",
"r  c #333539",
"t  c #39373B",
"y  c #35393C",
"u  c #393B3E",
"i  c #4D0107",
"p  c #482D1E",
"a  c #542B14",
"s  c #58391D",
"d  c #62331A",
"f  c #442B29",
"g  c #4B3529",
"h  c #523222",
"j  c #5E3322",
"k  c #5C3A26",
"l  c #50362C",
"z  c #523929",
"x  c #5C3B2A",
"c  c #452E33",
"v  c #4B3236",
"b  c #543C31",
"n  c #51373D",
"m  c #533A3E",
"M  c #653C24",
"N  c #6B3B24",
"B  c #643A28",
"V  c #5D432F",
"C  c #5D4336",
"Z  c #5A453A",
"A  c #64422D",
"S  c #6D422B",
"D  c #764629",
"F  c #73432D",
"G  c #6C4533",
"H  c #664937",
"J  c #6B4B32",
"K  c #61453A",
"L  c #644B3D",
"P  c #694E3D",
"I  c #734C34",
"U  c #7B4C34",
"Y  c #724B3B",
"T  c #6D503E",
"R  c #7C5133",
"E  c #71523B",
"W  c #7B533C",
"Q  c #373B41",
"!  c #3B3D42",
"~  c #3D3F49",
"^  c #460547",
"/  c #4B0246",
"(  c #450947",
")  c #4A024B",
"_  c #44094A",
"`  c #4F0251",
"'  c #5B0055",
"]  c #55005C",
"[  c #5F0B5C",
"{  c #65014B",
"}  c #6F045C",
"|  c #7F0057",
" . c #543D43",
".. c #64006A",
"X. c #6D096A",
"o. c #6B106D",
"O. c #670770",
"+. c #720273",
"@. c #790E7A",
"#. c #723567",
"$. c #642B71",
"%. c #3D4145",
"&. c #3C4148",
"*. c #3E494C",
"=. c #414347",
"-. c #42444A",
";. c #43484E",
":. c #494A4E",
">. c #5B424C",
",. c #434651",
"<. c #464953",
"1. c #494C53",
"2. c #4B4F59",
"3. c #5F4850",
"4. c #4C5157",
"5. c #4C535B",
"6. c #525257",
"7. c #6D5141",
"8. c #66534A",
"9. c #735341",
"0. c #7B5542",
"q. c #7B5B43",
"w. c #725B4B",
"e. c #7A5D49",
"r. c #7E634D",
"t. c #535562",
"y. c #666767",
"u. c #666867",
"i. c #696867",
"p. c #676768",
"a. c #696768",
"s. c #676868",
"d. c #747575",
"f. c #814D29",
"g. c #844E35",
"h. c #875537",
"j. c #84553A",
"k. c #8A5C3C",
"l. c #8F613E",
"z. c #88017C",
"x. c #900073",
"c. c #94067B",
"v. c #A3106A",
"b. c #AE027D",
"n. c #BC1474",
"m. c #802A7E",
"M. c #C50767",
"N. c #C4046D",
"B. c #CB026E",
"V. c #C20C6F",
"C. c #CE086F",
"Z. c #D9056C",
"A. c #CB0771",
"S. c #C50C73",
"D. c #CD0B76",
"F. c #C40579",
"G. c #C8077E",
"H. c #D50275",
"J. c #DA0174",
"K. c #D5037A",
"L. c #DC017B",
"P. c #CF1075",
"I. c #E10176",
"U. c #875641",
"Y. c #845C44",
"T. c #895C43",
"R. c #856246",
"E. c #8F6242",
"W. c #8C624A",
"Q. c #8C6A4D",
"!. c #936345",
"~. c #9A6545",
"^. c #9B6844",
"/. c #92644B",
"(. c #99644B",
"). c #94694E",
"_. c #996C4D",
"`. c #846551",
"'. c #8C6955",
"]. c #936E54",
"[. c #996E53",
"{. c #906F5C",
"}. c #9D7055",
"|. c #92725C",
" X c #99755A",
".X c #9B795B",
"XX c #A57451",
"oX c #AB7653",
"OX c #A3755C",
"+X c #AC7D5B",
"@X c #967862",
"#X c #9E7F69",
"$X c #A5815C",
"%X c #B4825A",
"&X c #9D8162",
"*X c #AC8A6C",
"=X c #B48561",
"-X c #BD8C63",
";X c #B38E6D",
":X c #B88E71",
">X c #BA9676",
",X c #C4906B",
"<X c #830383",
"1X c #890187",
"2X c #85028B",
"3X c #8B008B",
"4X c #840491",
"5X c #910095",
"6X c #B30583",
"7X c #BA0589",
"8X c #812B83",
"9X c #82338E",
"0X c #C20780",
"qX c #C42581",
"wX c #EB3D9B",
"eX c #854186",
"rX c #B57FB9",
"tX c #ED419D",
"yX c #E740A8",
"uX c #FE5EB7",
"iX c #FE58B8",
"pX c #F663BD",
"aX c #FD60B9",
"sX c #FE6FBC",
"dX c #FF73BF",
"fX c #FB74BD",
"gX c #FE74BF",
"hX c #FE6BC2",
"jX c #FE6FC9",
"kX c #FE75C2",
"lX c #FF79CB",
"zX c #FF6FD0",
"xX c #FF71D3",
"cX c #949495",
"vX c #BEA285",
"bX c #B483BA",
"nX c #E5C2A6",
"mX c #C289CD",
"MX c #C596C0",
"NX c #F6F7F4",
"BX c #FDF8F6",
"VX c #FBFAFB",
"CX c #FEFFFF",
/* pixels */
"3 7 e e r e e q q 0 0 0 e e 3 3 6 w e w 0 w e e q q q 0 0 w 0 0 ",
"5 1.&.! -.<.&.-.=.r - Q -.-.y 3 r -.~ &.-.<.<.<.-.-.,.1.1.<.<.y ",
"0 5.r t ~ ;.&.%.%.! - -.-.-.r 3 t -.! &.-.=.;.-.; ! %.&.-.-.<.! ",
"7 5.Q ! <.-.-.-.y # % -.;.-.w 5 u &.=.-.-.-.-.i # <.<.-.-.-.-.&.",
"0 5.&.! %.-.-.# i i <.-.-.=.7 5 ! %.=.-.=.=.=.# 5.5.,.&.=.=.-.%.",
"y 5.&.-.=.=.i # - - =.-.=.=.m.8X8X#.=.=.=.=.=.%.&.-.-.-.=.=.-.! ",
"w 2.Q - # # # - -.;.-.-.rX6XwXwXwXyX6XbX%.%.! ! %.! ! ! =.=.-.! ",
"0 ,.&.<.<.-.-.-.&.p.9X0XpXkXgXdXdXdXgXaXF.MXa.p.! ! %.! ! %.=.y ",
"w t.<.;.%.&.-.=.cXX.M.dXdXdXdXdXdXdXdXdXqXK.$.p.cX! ! ! ! %.%.r ",
"0 1.&.=.&.&.=.-.=.G.B.N.gXdXdXdXdXdXdXD.kX. X y.! ! ! ! ! %.%.r ",
"0 1.&.! &.&.-.=.o.H.V.S.C.S.dXkXkXB.jXn.NX      8.! ! ! ! =.%.r ",
"0 4.&.%.&.&.=.XX2XH.H.A.B.. . lXJ.H.J.} CXd.    *X:X! ! ! =.%.e ",
"6 <.&.&.-.-.=./.2XH.H.H.    VXBXx.zXlX@.        >XnX! ! ! ! =.9 ",
"5 Q -.,.&.&.j N 2XL.K.<X    o CXX K.sXxX        e.|.*X1.1.6.:.9 ",
"3 7 r y ! Q z 0.) H.K.)         X kXgXdXfX<X2X+.r.< &X0 0 6 5 5 ",
"5 7 r ! ;._ ( ( U 2XK.H.      / fXK.H.H.J.tXuX..3X2X%X,Xy 5 5 6 ",
"w <.5.5.5.I.) 2X2X2X) 3X1X/ / J.kXH.A.D.2XtXP.kXp h '.j.:.=.! 7 ",
"Q t.1.1.5.~.OXa / / / ` 3XfXH.J.3X{ kXhX7XO.c.H.iX0.Y.[ =.=.-.0 ",
"Q 5.2.1.,.& : 3 4 & * kXH.H.2X3X2 { kXdXv.* & +.3XH.H.H.%. .-.r ",
"%.2.&.;.&.;XY.5X- 4XfXJ.1X/ ^ vX'.] I.kX+ [.x g l ) ) !.@ @ @ e ",
"&.2.<.,.-.W.T.` L.H.3X) ^ $X;X X].Y.z.S./.+XE.l.XX-XoX!.- - 6.-.",
"-.1.-.&.-.j 0.!.}.+XR oX(.k.!.[.W S ` Z.eX+X^.=X+Xl.!.F ; =.:.! ",
"&.1.-.&.-.-.f /.7.).U.q.0.].q.Y.U W C ' Z.mX`.@X@X#X{.% =.=.=.! ",
"=.1.&.&.&.-.= H W a S M Y S U _.U S R  X| b.9.V 7.r.w.%.=.! =.! ",
"&.<.%.%.%.; O $ s k B a x Y.j.!.f.D g.XXJ.k h k R M =.=.! %.! u ",
"-.<.&.%.- O O Y q.Y.N T.I G B h.:XM d I s I A Q.>XR.=.=.! =.! u ",
"-.<.&.# # @ % -.$ = E E J I G S h.a > z 7.Y.R.Q.Q.=.=.%.! =.%.y ",
"&.<.&.# % - r ,.-.L C C P C b K T H 9..X.XR.V A =. .m m !  .m v ",
"w 2.&.@ &.*.;.,.=.Q ! Z w.y.i.a.a.p.p.p.Q.E :.-.-. .%.m =.n =.v ",
"9 -.=.&.&.,.,.&.&.&.&.&.cXy.u 7 y 1.;.u.cX-.<.<.1.>. . .! m m c ",
"5 0 r %.<.-.-.-.<.1.-.,.=.a.p.i.y.s.s.p.;.;.:.1.1.3.1.1.1. .v 0 ",
"3 1 3 7 6 6 6 5 3 3 3 3 5 5 3 3 , 7 0 7 9 0 0 r w c e q e f 6 8 "
};
