/* XPM */
static char *player_floor1713969956[] = {
/* columns rows colors chars-per-pixel */
"32 32 51 1 ",
"  c black",
". c #1F1E24",
"X c #211F23",
"o c #242426",
"O c #252629",
"+ c #292728",
"@ c #272A2C",
"# c #292A2E",
"$ c #252B30",
"% c #2B2D31",
"& c #2E3134",
"* c #2F3139",
"= c #313235",
"- c #333539",
"; c #38373A",
": c #35393C",
"> c #393A3E",
", c #363A41",
"< c #3B3D42",
"1 c #3D3E48",
"2 c #3D4145",
"3 c #394148",
"4 c #3C4048",
"5 c #3F4549",
"6 c #3E494D",
"7 c #414347",
"8 c #414447",
"9 c #404249",
"0 c #434448",
"q c #45464A",
"w c #40424D",
"e c #42444C",
"r c #44474F",
"t c #43484F",
"y c #44484D",
"u c #494A4E",
"i c #424751",
"p c #424951",
"a c #474953",
"s c #474954",
"d c #474E57",
"f c #484D53",
"g c #494C54",
"h c #4B4E59",
"j c #4A535A",
"k c #4D5258",
"l c #4A535C",
"z c #4D525C",
"x c #4E545D",
"c c #505154",
"v c #52535B",
/* pixels */
"o#==-==&&%%%==oo@*=*%*==&&&%%*%%",
"Of4<ea507-2,00:o-w140aaaeeifgaa:",
"%k-;1r422<2eee-o;0<409y02<24wwa<",
"#j,<ae00:22wtw*O>49w0q022aa00ee4",
"%z<<200222s0e9#O<2709992jlp39902",
"$#z<9922229099#O<89797724e0w790<",
"O$::<<22et00e9@o>22<22<<2<<<78q<",
"$O$#2<ww559744##:992<<<><<2<<28:",
"#$O$:2<9897<2<O#:<<<<<<<<<<<<2$O",
"%<$O#22w972222ooo2<<<<<<<<<<<$O+",
"%<$O$#<97022oooooo22<<<<<<<<<**-",
"%<4$O$<a2922o   ooo<2<<<<<<<<72=",
"@2<$$2<a942oo     oo2<><<:<<<<9$",
"O,2<#2aaa2ooo      o<2790uyffvu$",
"oo-*****-##oo      oo#####O%%@OO",
"+oo-afa49xxoo      oo<<<><<,:OO@",
"*o-kxha0x22<oo   ooo222719aru7<#",
",-gfxpe0h222oooooo7772779<<<77q%",
",-hgpe00ea2922oooo7222777777220-",
"2h4t44022a2222<o777222<27872222=",
"4haiee22205222<#222222<7q72222cq",
"egw40902220442###2222777222229u<",
"4ge400k22::#42<##22277722222797<",
"9g4442200#O-5<<##>>7792222227<9<",
"4a222222--O$2<>O*:<<22222877<2<>",
"wa422222-O$#27-o-<2272228777<7<>",
"wa422222:$O$<<-o:9920y008772<72:",
"4a42222:#O$-22=o-04288807OO<<OO<",
"*d3226:$O$:<<<-O4ee5q0u00O2O7O7O",
"$0954:#O-#:477>#:ft470aafOO<<OO-",
"O%-2a$O$#:ep97>%=q07ryuffOff<O2O",
"oXo#:@@OooooOOoo.#%#$%%-OOOooooo"
};
