/* XPM */
static char *_0bc7f2708894ed491b03e251e9b2ca6uhUYJEZJDzYtKsNm[] = {
/* columns rows colors chars-per-pixel */
"32 32 76 1 ",
"  c #06060B",
". c #0B060D",
"X c #0B0B0E",
"o c #120102",
"O c #1B0103",
"+ c #0C0E11",
"@ c #0E1215",
"# c #0C1319",
"$ c #111216",
"% c #13151A",
"& c #16191C",
"* c #191B1E",
"= c #230103",
"- c #350104",
"; c #3D0004",
": c #271214",
"> c #281214",
", c #36191A",
"< c #391B1C",
"1 c #151720",
"2 c #161922",
"3 c #1A1D22",
"4 c #1D2124",
"5 c #1D2329",
"6 c #212225",
"7 c #24262B",
"8 c #29262B",
"9 c #26292D",
"0 c #292A2E",
"q c #252731",
"w c #262B33",
"e c #292D30",
"r c #292C31",
"t c #2D2F32",
"y c #282A34",
"u c #282D34",
"i c #282E35",
"p c #2C2F37",
"a c #272F39",
"s c #2B2D38",
"d c #2D2E39",
"f c #273037",
"g c #2A3134",
"h c #2D3034",
"j c #2C3035",
"k c #2B333A",
"l c #2D303A",
"z c #2F333A",
"x c #2D343C",
"c c #313237",
"v c #30323D",
"b c #32353C",
"n c #33353F",
"m c #33373E",
"M c #35393E",
"N c #39383D",
"B c #4C0007",
"V c #4D0107",
"C c #323441",
"Z c #323641",
"A c #333941",
"S c #333A42",
"D c #333A43",
"F c #343840",
"G c #343C47",
"H c #363E46",
"J c #393B44",
"K c #393E45",
"L c #363F49",
"P c #3B3D49",
"I c #364047",
"U c #384047",
"Y c #394149",
"T c #3A424C",
"R c #3D434E",
"E c #414250",
/* pixels */
".@**3**&&&&&**XX@&*&&&**&&&&&&%%",
"+Aw7lnije3,7ii4X4swwinvnlsxFFCn5",
"%K36wle0e7,ddd3X6iwyjilj<qwissnq",
"@I78nljj4-:sld&+7widjjjV-nniillw",
"%Ywqetj-VVCpdi$+7eejppp-HLxipej0",
"3HwddeV-,,iiii$+7eeeeeeeisiseej0",
"1A5,---,kkgjli@X7ee0e000e900eej9",
"%xwnCdssfiteiw$+4eee007707090ee6",
"1RClwyiieee0V7+X4070077777709ee3",
"%AwtwyiipeeV-i@X*700077777709ee3",
"%Ai0wyiiejV-ix&X*909077777700ee3",
"&Ai0wyiieee,AT$+$007077777700ee3",
"@nkwiiiliiyelF%@300007777570qqy$",
"+7kxiilnnnFCFj3%4njp990pjnnnFPc$",
"X$3577313111%%@%3$&%%$$$$$@%%$++",
"+$39lFniillnn6@@%3e0e7eq70776++$",
"1CTUTHnVYxiegw$+$0wn<-0eqpvcce7$",
"7EHATxl-JCgeig*X&el<--eeeeee00j&",
"7PHAxki-lnieie*X@ew<O<ee00ee00t4",
"wPskka<=,neeie4X+6<VO<00ett>===*",
"iAxxkl=o<,eeiw4+$,=-<<0ej0:=,,Jc",
"sAsiii,;o:geii7X@<=<eete>--=<tc7",
"wCssiiKO-=>viw7+$<,<eee>-==:tpe7",
"wCsyil>o:-=:i07+$670ee=-=,00e0t7",
"sniee<oo34-=:07+&4900=>=,te00007",
"sCee,oo>lqw-=e6X39w0e,=,tte00007",
"sne--=:llqiw704X4eeejjjjte000e06",
"sni-:,3xlqwww03X4peejjjjte000t06",
"2Ai=wkkxt709e04+wllijjnjje0007e4",
"#iiiixxkiwwiee6$5nleejnnFnli000*",
"+&30vsdlnMllpe7&*cjtcnnnJKJnNt6%",
"X X$@@@+XXXX++X  $&$$%%3&3*&*&@+"
};
